PathFileType	4	(X/Y/Z)	D:\TRACE\spotREDO_2-26-24\spot_Both_Motion_1_10-v60.trc
DataRate	CameraRate	NumFrames	NumMarkers	Units	OrigDataRate	OrigDataStartFrame	OrigNumFrames
100.00	100.00	      24	9	mm	100.00	5251	      7000
Frame#	Time	front left toe			Front right toe			aft left toe			aft right toe			Arm			FL body			FR body			AL Body			AR Body			
		X1	Y1	Z1	X2	Y2	Z2	X3	Y3	Z3	X4	Y4	Z4	X5	Y5	Z5	X6	Y6	Z6	X7	Y7	Z7	X8	Y8	Z8	X9	Y9	Z9	

5251	52.500	-315.38501	1.15312	-501.81583	187.98244	2.69696	-509.69293	-333.72025	22.15434	120.87211	128.07376	28.50826	64.74130	-108.04353	651.50519	-802.99036	-142.59779	539.88544	-571.35052	12.16451	544.61877	-559.42017	-217.63034	563.18591	309.52640	-77.32103	568.49902	322.16052	
5252	52.510	-315.09271	1.17555	-502.03918	188.62923	2.54733	-509.38608	-333.73096	21.94487	120.84121	127.91035	28.41964	64.74483	-111.17567	649.27582	-802.87268	-141.93233	539.84991	-571.80115	13.00195	544.43768	-559.74695	-218.45361	563.15308	308.53790	-77.83574	568.29602	321.74582	
5253	52.520	-314.84525	0.95774	-502.12268	189.30209	2.53439	-508.89526	-333.71451	21.93029	120.72033	127.78054	28.43280	64.81211	-114.51749	646.82605	-803.18475	-140.96458	539.41504	-572.32330	13.69475	543.92456	-559.91638	-218.76405	563.30560	308.13715	-78.54019	568.41174	321.22141	
5254	52.530	-314.84021	0.75378	-502.06183	189.27638	2.32369	-508.82190	-333.59003	21.88930	120.69081	127.55139	28.36139	64.85794	-117.48903	644.37256	-803.48993	-140.44681	538.72516	-572.67377	13.99939	543.28333	-560.28204	-218.92717	563.78131	307.72281	-78.65178	568.87726	320.96365	
5255	52.540	-314.84924	0.59872	-501.99557	189.26363	2.36603	-508.88904	-333.57071	22.15928	120.60481	127.81577	28.49605	64.87235	-119.75835	642.77789	-804.06775	-140.53711	537.64075	-572.72052	14.08534	542.35150	-560.02686	-218.36568	564.15759	307.49829	-78.16267	569.52246	320.70172	
5256	52.550	-315.01523	0.60838	-501.82376	188.93617	2.53036	-509.30832	-333.52283	22.42476	120.64701	128.05060	28.44402	64.77618	-121.37580	641.59979	-804.42395	-141.33099	537.35449	-572.98718	13.52277	542.14935	-561.03326	-217.06471	564.60321	307.57117	-77.02680	570.05389	320.41675	
5257	52.560	-315.50699	0.52572	-501.43066	187.80489	2.34884	-509.90747	-333.46814	22.61757	120.66483	128.30637	27.98813	64.44164	-121.90161	641.13660	-805.19159	-142.17166	536.34094	-573.12109	12.40306	541.47058	-561.56293	-215.94348	564.80249	307.59372	-75.58690	570.24921	320.11475	
5258	52.570	-315.76971	0.24800	-501.22504	187.68262	2.33336	-510.23764	-333.13409	22.77663	120.83529	128.86784	27.91247	64.34001	-121.73400	641.12738	-805.85779	-143.51529	535.62445	-572.80304	11.70503	540.72803	-561.93555	-214.11928	565.15137	307.96057	-74.00031	570.61359	319.85571	
5259	52.580	-315.81302	0.01894	-501.05072	187.44447	2.47583	-510.58719	-332.64108	22.83316	121.00723	129.09132	27.81021	64.20937	-120.55180	641.23999	-806.12885	-144.69783	534.81659	-572.95496	10.42049	539.48376	-561.80450	-212.69537	565.15411	308.08441	-72.36845	570.59052	319.76746	
5260	52.590	-315.77902	-0.11161	-500.79242	187.24091	2.57358	-510.97180	-332.31241	22.87152	121.04099	129.07480	27.73988	64.18029	-119.30904	641.56226	-806.75140	-145.59789	534.32776	-572.88306	9.24816	539.17029	-562.74646	-211.24222	565.12512	308.37799	-70.82790	570.67767	319.87943	
5261	52.600	-315.53186	-0.16591	-500.58997	187.39627	2.73682	-511.01855	-331.97992	22.99027	121.01649	129.19907	27.47630	63.96388	-117.66051	642.10522	-806.90100	-146.22577	533.91498	-572.56390	8.78163	538.72534	-562.75018	-210.53702	565.38000	308.65588	-69.70559	570.71979	319.92419	
5262	52.610	-315.31192	-0.10707	-500.59668	187.56033	2.62671	-511.09982	-331.66751	22.99740	121.00562	129.37918	27.47324	63.94072	-116.38336	642.59528	-807.22247	-146.22087	533.24500	-572.30902	8.76730	538.30792	-562.60803	-209.87381	565.54993	308.80292	-69.03611	570.89532	320.03882	
5263	52.620	-314.75409	-0.10377	-500.61484	187.89049	2.43077	-510.99954	-331.48157	23.01405	121.02798	129.52748	27.48740	64.00376	-115.52842	642.92865	-807.31982	-145.46344	532.86554	-572.27692	9.43163	537.83130	-562.43945	-209.69536	565.63013	308.85965	-68.94572	570.84521	320.11612	
5264	52.630	-314.18121	-0.17259	-500.85202	189.21628	1.81702	-510.91272	-331.51773	22.85869	120.86104	129.81664	27.63408	64.20897	-115.32465	643.23206	-807.37939	-144.23999	532.55499	-572.27777	10.59188	536.98651	-562.04730	-210.17873	565.52606	308.84293	-69.34292	570.68347	320.30481	
5265	52.640	-313.80460	-0.15119	-500.99200	189.57967	1.54843	-510.76047	-331.48062	22.60075	120.74901	129.98291	27.79601	64.34155	-115.52617	643.34863	-807.17767	-143.05840	532.22479	-572.12701	11.90720	536.79974	-561.80261	-210.59689	565.46106	308.83920	-70.06658	570.55042	320.50610	
5266	52.650	-313.19226	0.00565	-501.24747	189.76616	1.75466	-510.12009	-331.42447	22.58945	120.71545	130.14589	27.91475	64.44960	-116.14127	643.45880	-806.73694	-141.29060	532.04578	-571.87067	13.59231	536.44421	-561.12994	-210.76430	565.41101	308.70407	-70.52093	570.45685	320.75977	
5267	52.660	-312.89804	0.43737	-501.41919	190.34808	1.61559	-509.69843	-331.36111	22.59923	120.63669	130.43898	28.05374	64.54441	-116.72572	643.49976	-806.23596	-139.54497	532.07806	-571.80780	15.29012	536.07678	-560.64777	-210.95016	565.49615	308.68793	-70.83072	570.45563	320.93085	
5268	52.670	-312.57465	0.87143	-501.55585	190.90170	1.27480	-509.64734	-331.25873	22.49887	120.61453	130.76697	28.17730	64.64381	-117.47317	643.39508	-805.58374	-138.14307	531.91479	-571.36627	16.72877	535.78278	-560.03668	-211.12439	565.60205	308.76105	-71.13779	570.36902	321.45413	
5269	52.680	-312.18860	0.89825	-501.70767	191.45999	1.06845	-509.54117	-330.83234	22.36304	120.61829	131.09019	28.19792	64.73206	-118.50935	643.30609	-804.96588	-136.62202	531.63129	-571.24902	18.31504	535.20941	-558.76758	-211.15253	565.68323	309.01532	-71.07285	570.37250	322.05243	
5270	52.690	-311.34433	0.63885	-501.89993	191.89819	1.40390	-509.43402	-330.20667	22.09069	120.73058	131.61105	28.28363	64.84949	-119.27318	643.19055	-804.61517	-135.53738	531.41272	-570.85388	19.24952	535.24237	-558.82941	-210.86629	565.74481	309.29019	-70.71458	570.35382	322.47522	
5271	52.700	-311.10355	0.59105	-501.74701	192.21463	1.60371	-509.31201	-329.84732	22.23938	120.78069	131.97382	28.26586	64.77880	-119.94679	643.28107	-804.27582	-135.03943	531.37878	-570.39337	20.03774	535.06299	-558.41589	-210.37399	566.14636	309.94711	-70.00705	570.55017	322.78650	
5272	52.710	-310.67368	0.53851	-501.54678	192.42891	1.70560	-509.36993	-329.52997	22.40970	120.97252	132.02974	28.10631	64.71282	-120.18958	643.26074	-803.90833	-134.42601	531.32117	-569.67810	20.45005	534.96252	-557.97394	-209.16011	566.23071	310.67456	-68.86693	570.64978	323.42648	
5273	52.720	-310.43726	0.43108	-501.36700	193.11836	2.42638	-508.78824	-328.84378	22.63725	120.92895	132.21136	27.66287	64.12545	-120.09675	643.22235	-803.78448	-134.10336	531.24463	-569.09430	20.76913	534.27161	-556.67230	-207.63879	566.46576	311.40216	-67.52274	570.84106	323.94073	
5274	52.730	-310.26956	0.35974	-501.11011	192.71005	1.86504	-509.64468	-328.29468	22.73268	120.96599	132.58218	27.22586	63.77001	-119.73893	643.18536	-803.66736	-133.95479	531.15240	-568.32501	20.96661	534.42352	-556.90137	-205.88396	566.54083	312.35382	-65.48777	570.73688	324.78973	
